# xmcd CD database file
#
# Track frame offsets:
#	150
#	5127
#	16322
#	36738
#	67103
#	96068
#	109185
#	126361
#	147342
#	169318
#	204112
#	224786
#	237526
#	261105
#	281017
#
# Disc length: 3882 seconds
#
# Revision: 0
# Processed by: cddbd v1.5.2PL0 Copyright (c) Steve Scherf et al.
# Submitted via: CDex 1.70beta2
#
DISCID=f10f280f
DTITLE=B.B. King - The Jazz Channel Present B.B. King: BET on Jazz
DYEAR=2000
DGENRE=Blues
TTITLE0=B.B. King BET on  Jazz - Two I Shoot Blues
TTITLE1=B.B. King BET on Jazz - Let the Good Times Roll
TTITLE2=B.B. King BET on Jazz - I'll Survive
TTITLE3=B.B. King BET on Jazz - Bad Case of Love 
TTITLE4=B.B. King BET on Jazz - Peace of Mind 
TTITLE5=B.B. King BET on Jazz - Caldonia 
TTITLE6=B.B. King BET on Jazz - Blues Boys Tune 
TTITLE7=B.B. King BET on Jazz - Early in the Morning 
TTITLE8=B.B. King BET on Jazz - Just Like a Woman 
TTITLE9=B.B. King BET on Jazz - I'm Gonna Move to the Outskirts of Town 
TTITLE10=B.B. King BET on Jazz - The Thrill is Gone 
TTITLE11=B.B. King BET on Jazz - I Know 
TTITLE12=B.B. King BET on Jazz - Don't Go No Further (You Need Meat) 
TTITLE13=B.B. King BET on Jazz - Please Accept My Love 
TTITLE14=B.B. King BET on Jazz - Making Love is Good for You
EXTD=YEAR: 2000
EXTT0=
EXTT1=
EXTT2=
EXTT3=
EXTT4=
EXTT5=
EXTT6=
EXTT7=
EXTT8=
EXTT9=
EXTT10=
EXTT11=
EXTT12=
EXTT13=
EXTT14=
PLAYORDER=
